<svg width="126" height="89" viewBox="0 0 126 89" fill="none" xmlns="http://www.w3.org/2000/svg">
<path d="M77.3609 79.6562L77.3643 79.6597C82.6524 85.1637 89.2978 87.9147 97.2634 87.9147C105.113 87.9147 111.7 85.3833 116.989 80.3096L116.993 80.3059C122.294 75.1129 124.927 68.1981 124.927 59.6158C124.927 51.7961 122.782 45.8671 118.407 41.9295C114.091 38.0452 109.316 36.0825 104.094 36.0825C101.505 36.0825 98.97 36.4598 96.4894 37.214C95.3778 37.5177 94.3957 37.8949 93.548 38.3494C93.3025 38.4811 92.9479 38.4701 92.658 38.3197C92.3715 38.171 92.2764 37.9663 92.3069 37.7824C92.8596 34.455 94.2697 31.2426 96.5534 28.1431C99.5998 24.0465 103.011 20.4779 106.788 17.4353C110.011 14.9093 112.748 13.0815 115.004 11.9388C115.932 11.4682 116.194 10.1836 115.403 9.4295L106.683 1.11211C106.235 0.684767 105.566 0.573238 105.003 0.847688C99.3437 3.60697 93.7928 7.45486 88.3498 12.3843L88.3463 12.3875C82.7919 17.5147 78.255 23.6545 74.7346 30.8018C71.2009 37.9764 69.4411 46.2084 69.4411 55.4857C69.4411 65.9434 72.0562 74.0267 77.3609 79.6562ZM8.41976 79.6562L8.42312 79.6597C13.7113 85.1637 20.3566 87.9147 28.3223 87.9147C36.1714 87.9147 42.7585 85.3833 48.0482 80.3096L48.0519 80.3059C53.3531 75.1129 55.9857 68.1981 55.9857 59.6158C55.9857 51.7961 53.8413 45.8671 49.4662 41.9295C45.1503 38.0452 40.3748 36.0825 35.1529 36.0825C32.5643 36.0825 30.0289 36.4598 27.5483 37.214C26.4367 37.5176 25.4546 37.8949 24.6069 38.3494C24.3613 38.4811 24.0068 38.4702 23.7169 38.3197C23.4304 38.171 23.3352 37.9663 23.3658 37.7824C23.9185 34.455 25.3286 31.2426 27.6123 28.1431C30.6586 24.0465 34.0702 20.478 37.8467 17.4354C41.0698 14.9093 43.807 13.0816 46.0626 11.9388C46.9914 11.4682 47.2526 10.1836 46.462 9.4295L37.7422 1.11211C37.2941 0.684768 36.6252 0.573237 36.0623 0.847687C30.4026 3.60697 24.8517 7.45486 19.4087 12.3843L19.4087 12.3843L19.4052 12.3875C13.8508 17.5147 9.31387 23.6545 5.79352 30.8018C2.2598 37.9764 0.5 46.2084 0.5 55.4857C0.5 65.9434 3.1151 74.0267 8.41976 79.6562Z" stroke="#022F52" stroke-opacity="0.06"/>
</svg>
