<svg width="16" height="16" viewBox="0 0 16 16" fill="none" xmlns="http://www.w3.org/2000/svg">
<path fill-rule="evenodd" clip-rule="evenodd" d="M13.2566 2.69694C13.562 2.97671 13.5829 3.45113 13.3031 3.75658C11.7064 5.49978 10.9263 6.57968 9.77309 8.6432C9.32867 9.43841 8.84517 10.5239 8.46682 11.4287C8.2792 11.8774 8.12024 12.2748 8.00826 12.56C7.9523 12.7024 7.90815 12.8167 7.87811 12.895L7.84393 12.9844L7.83533 13.0071L7.83277 13.0139C7.7397 13.2612 7.52321 13.4416 7.26307 13.4882C7.00292 13.5349 6.73744 13.4411 6.56424 13.2415L2.68352 8.76883C2.41206 8.45596 2.44563 7.98228 2.7585 7.71082C3.07136 7.43936 3.54505 7.47293 3.8165 7.7858L6.887 11.3247C6.94789 11.1753 7.01349 11.0161 7.08294 10.85C7.46531 9.9356 7.97564 8.78473 8.4637 7.91142C9.67357 5.74656 10.5219 4.57224 12.1969 2.74343C12.4767 2.43798 12.9511 2.41716 13.2566 2.69694Z" fill="#868FA0"/>
</svg>
